<svg width="73" height="73" viewBox="0 0 73 73" fill="none" xmlns="http://www.w3.org/2000/svg">
<path d="M36.6444 7.58652C36.86 7.58652 37.0667 7.67199 37.219 7.82409C37.3714 7.97619 37.457 8.18247 37.457 8.39757V12.0571C37.457 12.2722 37.3714 12.4784 37.219 12.6305C37.0667 12.7826 36.86 12.8681 36.6444 12.8681C36.4289 12.8681 36.2222 12.7826 36.0698 12.6305C35.9175 12.4784 35.8319 12.2722 35.8319 12.0571V8.40407C35.831 8.29701 35.8514 8.19084 35.8919 8.09168C35.9323 7.99253 35.992 7.90235 36.0675 7.82635C36.1431 7.75035 36.233 7.69006 36.332 7.64889C36.431 7.60773 36.5372 7.58651 36.6444 7.58652Z" fill="#5262EE"/>
<path d="M31.1185 5.72438H34.7916C35.0071 5.72438 35.2138 5.80985 35.3662 5.96195C35.5186 6.11406 35.6042 6.32033 35.6042 6.53544C35.6042 6.75054 35.5186 6.95686 35.3662 7.10896C35.2138 7.26106 35.0071 7.3465 34.7916 7.3465H31.1185C30.903 7.3465 30.6963 7.26106 30.5439 7.10896C30.3915 6.95686 30.3059 6.75054 30.3059 6.53544C30.3059 6.32033 30.3915 6.11406 30.5439 5.96195C30.6963 5.80985 30.903 5.72438 31.1185 5.72438Z" fill="#5262EE"/>
<path d="M36.6444 0.202851C36.8599 0.202851 37.0667 0.288323 37.219 0.440425C37.3714 0.592527 37.457 0.798799 37.457 1.0139V4.67338C37.457 4.88849 37.3714 5.0948 37.219 5.2469C37.0667 5.399 36.8599 5.48444 36.6444 5.48444C36.4289 5.48444 36.2222 5.399 36.0698 5.2469C35.9174 5.0948 35.8318 4.88849 35.8318 4.67338V1.0139C35.8318 0.798799 35.9174 0.592527 36.0698 0.440425C36.2222 0.288323 36.4289 0.202851 36.6444 0.202851Z" fill="#5262EE"/>
<path d="M38.5198 5.72438H42.1864C42.4019 5.72438 42.6086 5.80985 42.761 5.96195C42.9134 6.11406 42.999 6.32033 42.999 6.53544C42.999 6.75054 42.9134 6.95686 42.761 7.10896C42.6086 7.26106 42.4019 7.3465 42.1864 7.3465H38.5198C38.3043 7.3465 38.0976 7.26106 37.9452 7.10896C37.7928 6.95686 37.7072 6.75054 37.7072 6.53544C37.7072 6.32033 37.7928 6.11406 37.9452 5.96195C38.0976 5.80985 38.3043 5.72438 38.5198 5.72438Z" fill="#5262EE"/>
<path d="M7.44683 51.1443C7.63312 51.2131 7.78449 51.3531 7.86762 51.5333C7.95074 51.7134 7.95882 51.9191 7.89008 52.1051L6.72061 55.2685C6.65187 55.4544 6.51196 55.6054 6.33162 55.6882C6.15128 55.771 5.94529 55.7788 5.75899 55.7099C5.57269 55.6411 5.42132 55.5011 5.3382 55.3209C5.25507 55.1407 5.247 54.9351 5.31574 54.7491L6.48312 51.5913C6.51659 51.4985 6.56816 51.4132 6.63481 51.3405C6.70147 51.2677 6.78189 51.2088 6.87148 51.1672C6.96107 51.1257 7.05804 51.1023 7.15679 51.0983C7.25554 51.0944 7.35411 51.11 7.44683 51.1443Z" fill="#9699AB"/>
<path d="M3.26496 47.7687L6.44017 48.9426C6.62648 49.0114 6.77783 49.1514 6.86096 49.3316C6.94409 49.5117 6.9522 49.7174 6.88346 49.9034C6.81472 50.0893 6.67476 50.2403 6.49441 50.3231C6.31406 50.4059 6.1081 50.4137 5.92179 50.3448L2.74658 49.171C2.56028 49.1021 2.40888 48.9622 2.32575 48.782C2.24262 48.6018 2.23456 48.3961 2.3033 48.2102C2.37204 48.0242 2.51195 47.8733 2.6923 47.7905C2.87265 47.7077 3.07866 47.6999 3.26496 47.7687Z" fill="#9699AB"/>
<path d="M9.80643 44.7615C9.99274 44.8304 10.1441 44.9703 10.2272 45.1505C10.3104 45.3307 10.3184 45.5364 10.2497 45.7223L9.08023 48.8857C9.01149 49.0717 8.87157 49.2227 8.69123 49.3055C8.51088 49.3882 8.3049 49.396 8.1186 49.3272C7.9323 49.2583 7.78091 49.1184 7.69778 48.9382C7.61466 48.758 7.60659 48.5523 7.67534 48.3664L8.8448 45.2029C8.91354 45.017 9.05345 44.866 9.23379 44.7833C9.41413 44.7005 9.62013 44.6926 9.80643 44.7615Z" fill="#9699AB"/>
<path d="M9.66316 50.1338L12.8327 51.3055C13.0191 51.3744 13.1704 51.5143 13.2535 51.6945C13.3367 51.8747 13.3448 52.0804 13.276 52.2663C13.2073 52.4523 13.0673 52.6033 12.887 52.6861C12.7066 52.7688 12.5007 52.7767 12.3144 52.7078L9.14478 51.536C8.95847 51.4672 8.80708 51.3273 8.72395 51.1471C8.64082 50.9669 8.63275 50.7612 8.7015 50.5752C8.77024 50.3893 8.91015 50.2383 9.0905 50.1555C9.27085 50.0728 9.47686 50.0649 9.66316 50.1338Z" fill="#9699AB"/>
<path d="M67.03 34.1542C65.4394 34.1542 64.15 35.4411 64.15 37.0286C64.15 38.616 65.4394 39.903 67.03 39.903C68.6205 39.903 69.9099 38.616 69.9099 37.0286C69.9099 35.4411 68.6205 34.1542 67.03 34.1542Z" fill="#32AD67"/>
<path d="M70.6253 68.8938C69.6524 68.8938 68.8637 69.681 68.8637 70.652C68.8637 71.623 69.6524 72.4102 70.6253 72.4102C71.5983 72.4102 72.387 71.623 72.387 70.652C72.387 69.681 71.5983 68.8938 70.6253 68.8938Z" fill="#0B0E37"/>
<path d="M6.39842 14.9673C4.7104 14.9673 3.342 16.3357 3.342 18.0237C3.342 19.7117 4.7104 21.0801 6.39842 21.0801C8.08643 21.0801 9.45483 19.7117 9.45483 18.0237C9.45483 16.3357 8.08643 14.9673 6.39842 14.9673Z" fill="#0B0E37"/>
<path d="M39.9084 38.8614C36.9841 38.8614 34.6134 41.2321 34.6134 44.1564C34.6134 47.0807 36.9841 49.4514 39.9084 49.4514C42.8327 49.4514 45.2034 47.0807 45.2034 44.1564C45.2034 41.2321 42.8327 38.8614 39.9084 38.8614Z" fill="#5262EE"/>
</svg>
